<svg width="19" height="19" viewBox="0 0 19 19" fill="none" xmlns="http://www.w3.org/2000/svg">
<path d="M11.8385 1.39038L11.8377 1.39038C10.5605 1.39038 9.55052 1.79574 8.85963 2.50389C8.16805 3.21275 7.77063 4.2513 7.77063 5.56567V7.41882V7.66882H7.52063H5.28402H5.28385C5.20346 7.66877 5.13825 7.73389 5.13818 7.81428V10.863V10.8632C5.13813 10.9436 5.20324 11.0088 5.28375 11.0089H7.52063H7.77063V11.2589V17.3695V17.3697C7.77058 17.4501 7.83569 17.5153 7.91619 17.5154H11.0653H11.0655C11.1459 17.5154 11.2111 17.4503 11.2112 17.3698V11.2589V11.0089H11.4612H13.6908C13.6908 11.0089 13.6909 11.0089 13.6909 11.0089C13.7641 11.0088 13.826 10.9546 13.8357 10.882C13.8357 10.8818 13.8357 10.8817 13.8357 10.8816L14.2292 7.83367L14.2292 7.83334C14.2396 7.75363 14.1835 7.68054 14.1037 7.67007C14.1037 7.67007 14.1037 7.67006 14.1036 7.67006L11.8385 1.39038ZM11.8385 1.39038C12.6312 1.38776 13.4234 1.42822 14.2117 1.51149C14.2831 1.52217 14.3361 1.58352 14.3361 1.65598V1.65605V4.38308M11.8385 1.39038L11.7112 7.41882H11.4612V7.16882V5.86796C11.4612 5.10026 11.6158 4.77942 12.576 4.77942M12.576 4.77942L14.1903 4.77865C14.4088 4.77874 14.586 4.60175 14.5861 4.38325L14.3361 4.38308M12.576 4.77942L12.5759 4.52942H12.576M12.576 4.77942V4.52942M14.3361 4.38308C14.336 4.46353 14.2708 4.52868 14.1904 4.52865H14.1901L12.576 4.52942M14.3361 4.38308L12.576 4.52942" stroke="white" stroke-width="0.5"/>
</svg>
