<svg width="30" height="30" viewBox="0 0 30 30" fill="none" xmlns="http://www.w3.org/2000/svg">
<mask id="path-1-inside-1_975_64" fill="white">
<path fill-rule="evenodd" clip-rule="evenodd" d="M15 0C10.926 0 10.416 0.017 8.816 0.09C7.219 0.163 6.128 0.417 5.174 0.788C4.174 1.164 3.267 1.754 2.517 2.518C1.75422 3.26713 1.16386 4.17349 0.787 5.174C0.418 6.128 0.163 7.22 0.09 8.817C0.018 10.416 0 10.925 0 15C0 19.075 0.017 19.584 0.09 21.184C0.163 22.781 0.417 23.872 0.788 24.826C1.164 25.826 1.754 26.733 2.518 27.483C3.26715 28.2458 4.17351 28.8361 5.174 29.213C6.128 29.583 7.219 29.837 8.816 29.91C10.416 29.983 10.926 30 15 30C19.074 30 19.584 29.983 21.184 29.91C22.781 29.837 23.872 29.583 24.826 29.212C25.826 28.836 26.733 28.246 27.483 27.482C28.2458 26.7329 28.8361 25.8265 29.213 24.826C29.583 23.872 29.837 22.781 29.91 21.184C29.983 19.584 30 19.074 30 15C30 10.926 29.983 10.416 29.91 8.816C29.837 7.219 29.583 6.128 29.212 5.174C28.8354 4.17306 28.245 3.26632 27.482 2.517C26.7329 1.75422 25.8265 1.16386 24.826 0.787C23.872 0.418 22.78 0.163 21.183 0.09C19.584 0.018 19.075 0 15 0ZM24 7.7824C24 8.25512 23.8261 8.70848 23.5165 9.04274C23.2069 9.377 22.7869 9.56479 22.3491 9.56479C21.9112 9.56479 21.4913 9.377 21.1817 9.04274C20.8721 8.70848 20.6982 8.25512 20.6982 7.7824C20.6982 7.30968 20.8721 6.85632 21.1817 6.52205C21.4913 6.18779 21.9112 6 22.3491 6C22.7869 6 23.2069 6.18779 23.5165 6.52205C23.8261 6.85632 24 7.30968 24 7.7824ZM14.9841 7.91932C13.1318 7.91932 11.3554 8.71374 10.0456 10.1278C8.73582 11.5419 8 13.4598 8 15.4597C8 17.4595 8.73582 19.3774 10.0456 20.7915C11.3554 22.2056 13.1318 23 14.9841 23C16.8364 23 18.6128 22.2056 19.9226 20.7915C21.2324 19.3774 21.9682 17.4595 21.9682 15.4597C21.9682 13.4598 21.2324 11.5419 19.9226 10.1278C18.6128 8.71374 16.8364 7.91932 14.9841 7.91932Z"/>
</mask>
<path fill-rule="evenodd" clip-rule="evenodd" d="M15 0C10.926 0 10.416 0.017 8.816 0.09C7.219 0.163 6.128 0.417 5.174 0.788C4.174 1.164 3.267 1.754 2.517 2.518C1.75422 3.26713 1.16386 4.17349 0.787 5.174C0.418 6.128 0.163 7.22 0.09 8.817C0.018 10.416 0 10.925 0 15C0 19.075 0.017 19.584 0.09 21.184C0.163 22.781 0.417 23.872 0.788 24.826C1.164 25.826 1.754 26.733 2.518 27.483C3.26715 28.2458 4.17351 28.8361 5.174 29.213C6.128 29.583 7.219 29.837 8.816 29.91C10.416 29.983 10.926 30 15 30C19.074 30 19.584 29.983 21.184 29.91C22.781 29.837 23.872 29.583 24.826 29.212C25.826 28.836 26.733 28.246 27.483 27.482C28.2458 26.7329 28.8361 25.8265 29.213 24.826C29.583 23.872 29.837 22.781 29.91 21.184C29.983 19.584 30 19.074 30 15C30 10.926 29.983 10.416 29.91 8.816C29.837 7.219 29.583 6.128 29.212 5.174C28.8354 4.17306 28.245 3.26632 27.482 2.517C26.7329 1.75422 25.8265 1.16386 24.826 0.787C23.872 0.418 22.78 0.163 21.183 0.09C19.584 0.018 19.075 0 15 0ZM24 7.7824C24 8.25512 23.8261 8.70848 23.5165 9.04274C23.2069 9.377 22.7869 9.56479 22.3491 9.56479C21.9112 9.56479 21.4913 9.377 21.1817 9.04274C20.8721 8.70848 20.6982 8.25512 20.6982 7.7824C20.6982 7.30968 20.8721 6.85632 21.1817 6.52205C21.4913 6.18779 21.9112 6 22.3491 6C22.7869 6 23.2069 6.18779 23.5165 6.52205C23.8261 6.85632 24 7.30968 24 7.7824ZM14.9841 7.91932C13.1318 7.91932 11.3554 8.71374 10.0456 10.1278C8.73582 11.5419 8 13.4598 8 15.4597C8 17.4595 8.73582 19.3774 10.0456 20.7915C11.3554 22.2056 13.1318 23 14.9841 23C16.8364 23 18.6128 22.2056 19.9226 20.7915C21.2324 19.3774 21.9682 17.4595 21.9682 15.4597C21.9682 13.4598 21.2324 11.5419 19.9226 10.1278C18.6128 8.71374 16.8364 7.91932 14.9841 7.91932Z" fill="white"/>
<path d="M8.816 0.09L8.79321 -0.40948L8.79317 -0.409478L8.816 0.09ZM5.174 0.788L5.34998 1.25604L5.35522 1.254L5.174 0.788ZM2.517 2.518L2.86741 2.87479L2.87381 2.86827L2.517 2.518ZM0.787 5.174L1.25335 5.35438L1.25491 5.35025L0.787 5.174ZM0.09 8.817L-0.409479 8.79417L-0.409494 8.79451L0.09 8.817ZM0.09 21.184L-0.40948 21.2068L-0.409478 21.2068L0.09 21.184ZM0.788 24.826L1.25604 24.65L1.254 24.6448L0.788 24.826ZM2.518 27.483L2.87478 27.1326L2.86827 27.1262L2.518 27.483ZM5.174 29.213L5.35481 28.7468L5.35026 28.7451L5.174 29.213ZM8.816 29.91L8.79317 30.4095L8.79321 30.4095L8.816 29.91ZM21.184 29.91L21.2068 30.4095L21.2068 30.4095L21.184 29.91ZM24.826 29.212L24.65 28.744L24.6448 28.746L24.826 29.212ZM27.483 27.482L27.1326 27.1252L27.1262 27.1317L27.483 27.482ZM29.213 24.826L28.7468 24.6452L28.7451 24.6498L29.213 24.826ZM29.91 21.184L30.4095 21.2068L30.4095 21.2068L29.91 21.184ZM29.91 8.816L30.4095 8.79321L30.4095 8.79317L29.91 8.816ZM29.212 5.174L28.744 5.35008L28.746 5.35522L29.212 5.174ZM27.482 2.517L27.1252 2.86741L27.1317 2.87374L27.482 2.517ZM24.826 0.787L24.6456 1.25335L24.6498 1.25491L24.826 0.787ZM21.183 0.09L21.2058 -0.409479L21.2055 -0.409494L21.183 0.09ZM21.1817 9.04274L20.8149 9.3825L20.8149 9.38251L21.1817 9.04274ZM21.1817 6.52205L20.8149 6.18229L20.8149 6.18229L21.1817 6.52205ZM23.5165 6.52205L23.8833 6.18229L23.5165 6.52205ZM10.0456 10.1278L10.4124 10.4676V10.4676L10.0456 10.1278ZM10.0456 20.7915L10.4124 20.4517H10.4124L10.0456 20.7915ZM19.9226 20.7915L20.2894 21.1312L19.9226 20.7915ZM19.9226 10.1278L20.2894 9.78807V9.78807L19.9226 10.1278ZM8.83879 0.58948C10.4273 0.517003 10.9284 0.5 15 0.5V-0.5C10.9236 -0.5 10.4047 -0.483003 8.79321 -0.40948L8.83879 0.58948ZM5.35522 1.254C6.25261 0.905017 7.28929 0.660309 8.83883 0.589478L8.79317 -0.409478C7.14871 -0.334309 6.00339 -0.0710173 4.99278 0.321998L5.35522 1.254ZM2.87381 2.86827C3.57277 2.15626 4.41804 1.60642 5.34997 1.25601L4.99803 0.31999C3.92996 0.721582 2.96123 1.35174 2.16019 2.16773L2.87381 2.86827ZM1.25491 5.35025C1.60616 4.41773 2.1564 3.57296 2.86735 2.87473L2.16665 2.16127C1.35204 2.96131 0.721559 3.92926 0.319093 4.99775L1.25491 5.35025ZM0.589478 8.83983C0.660296 7.29058 0.905942 6.2525 1.25333 5.35437L0.320668 4.99363C-0.0699421 6.0035 -0.334296 7.14942 -0.409478 8.79417L0.589478 8.83983ZM0.5 15C0.5 10.9277 0.517995 10.4274 0.589494 8.83949L-0.409494 8.79451C-0.481995 10.4046 -0.5 10.9223 -0.5 15H0.5ZM0.58948 21.1612C0.517003 19.5727 0.5 19.0726 0.5 15H-0.5C-0.5 19.0774 -0.483003 19.5953 -0.40948 21.2068L0.58948 21.1612ZM1.254 24.6448C0.905017 23.7474 0.660309 22.7107 0.589478 21.1612L-0.409478 21.2068C-0.334309 22.8513 -0.0710173 23.9966 0.321998 25.0072L1.254 24.6448ZM2.86827 27.1262C2.15626 26.4272 1.60642 25.582 1.25601 24.65L0.31999 25.002C0.721582 26.07 1.35174 27.0388 2.16773 27.8398L2.86827 27.1262ZM5.35026 28.7451C4.41775 28.3938 3.57297 27.8436 2.87472 27.1326L2.16128 27.8334C2.96134 28.6479 3.92927 29.2784 4.99774 29.6809L5.35026 28.7451ZM8.83883 29.4105C7.28932 29.3397 6.25246 29.095 5.3548 28.7468L4.9932 29.6792C6.00354 30.071 7.14868 30.3343 8.79317 30.4095L8.83883 29.4105ZM15 29.5C10.9284 29.5 10.4273 29.483 8.83879 29.4105L8.79321 30.4095C10.4047 30.483 10.9236 30.5 15 30.5V29.5ZM21.1612 29.4105C19.5727 29.483 19.0716 29.5 15 29.5V30.5C19.0764 30.5 19.5953 30.483 21.2068 30.4095L21.1612 29.4105ZM24.6448 28.746C23.7474 29.095 22.7107 29.3397 21.1612 29.4105L21.2068 30.4095C22.8513 30.3343 23.9966 30.071 25.0072 29.678L24.6448 28.746ZM27.1262 27.1317C26.4272 27.8437 25.582 28.3936 24.65 28.744L25.002 29.68C26.07 29.2784 27.0388 28.6483 27.8398 27.8323L27.1262 27.1317ZM28.7451 24.6498C28.3938 25.5823 27.8436 26.427 27.1327 27.1253L27.8333 27.8387C28.648 27.0387 29.2784 26.0707 29.6809 25.0022L28.7451 24.6498ZM29.4105 21.1612C29.3397 22.7107 29.095 23.7475 28.7468 24.6452L29.6792 25.0068C30.071 23.9965 30.3343 22.8513 30.4095 21.2068L29.4105 21.1612ZM29.5 15C29.5 19.0716 29.483 19.5727 29.4105 21.1612L30.4095 21.2068C30.483 19.5953 30.5 19.0764 30.5 15H29.5ZM29.4105 8.83879C29.483 10.4273 29.5 10.9284 29.5 15H30.5C30.5 10.9236 30.483 10.4047 30.4095 8.79321L29.4105 8.83879ZM28.746 5.35522C29.095 6.25261 29.3397 7.28929 29.4105 8.83883L30.4095 8.79317C30.3343 7.14871 30.071 6.00339 29.678 4.99278L28.746 5.35522ZM27.1317 2.87374C27.8428 3.57211 28.393 4.4172 28.744 5.35007L29.68 4.99793C29.2778 3.92893 28.6472 2.96053 27.8323 2.16026L27.1317 2.87374ZM24.6498 1.25491C25.5823 1.60616 26.427 2.1564 27.1253 2.86735L27.8387 2.16665C27.0387 1.35204 26.0707 0.721559 25.0022 0.319092L24.6498 1.25491ZM21.1602 0.589478C22.7094 0.660296 23.7475 0.905942 24.6456 1.25333L25.0064 0.320668C23.9965 -0.0699421 22.8506 -0.334296 21.2058 -0.409478L21.1602 0.589478ZM15 0.5C19.0723 0.5 19.5726 0.517995 21.1605 0.589494L21.2055 -0.409494C19.5954 -0.481995 19.0777 -0.5 15 -0.5V0.5ZM23.8833 9.3825C24.282 8.95205 24.5 8.37589 24.5 7.7824H23.5C23.5 8.13435 23.3701 8.4649 23.1496 8.70298L23.8833 9.3825ZM22.3491 10.0648C22.9325 10.0648 23.4834 9.81425 23.8833 9.3825L23.1496 8.70298C22.9303 8.93976 22.6414 9.06479 22.3491 9.06479V10.0648ZM20.8149 9.38251C21.2148 9.81425 21.7657 10.0648 22.3491 10.0648V9.06479C22.0568 9.06479 21.7679 8.93976 21.5485 8.70298L20.8149 9.38251ZM20.1982 7.7824C20.1982 8.37589 20.4162 8.95205 20.8149 9.3825L21.5485 8.70298C21.328 8.4649 21.1982 8.13435 21.1982 7.7824H20.1982ZM20.8149 6.18229C20.4162 6.61274 20.1982 7.1889 20.1982 7.7824H21.1982C21.1982 7.43045 21.328 7.09989 21.5485 6.86182L20.8149 6.18229ZM22.3491 5.5C21.7657 5.5 21.2148 5.75054 20.8149 6.18229L21.5485 6.86182C21.7679 6.62503 22.0568 6.5 22.3491 6.5V5.5ZM23.8833 6.18229C23.4834 5.75054 22.9325 5.5 22.3491 5.5V6.5C22.6414 6.5 22.9303 6.62503 23.1496 6.86182L23.8833 6.18229ZM24.5 7.7824C24.5 7.18891 24.282 6.61274 23.8833 6.18229L23.1496 6.86182C23.3701 7.09989 23.5 7.43044 23.5 7.7824H24.5ZM10.4124 10.4676C11.6319 9.15099 13.2773 8.41932 14.9841 8.41932V7.41932C12.9863 7.41932 11.0788 8.2765 9.67877 9.78807L10.4124 10.4676ZM8.5 15.4597C8.5 13.5806 9.19174 11.7855 10.4124 10.4676L9.67877 9.78807C8.2799 11.2983 7.5 13.3391 7.5 15.4597H8.5ZM10.4124 20.4517C9.19174 19.1338 8.5 17.3387 8.5 15.4597H7.5C7.5 17.5802 8.2799 19.621 9.67877 21.1312L10.4124 20.4517ZM14.9841 22.5C13.2773 22.5 11.6319 21.7683 10.4124 20.4517L9.67877 21.1312C11.0788 22.6428 12.9863 23.5 14.9841 23.5V22.5ZM19.5558 20.4517C18.3363 21.7683 16.6909 22.5 14.9841 22.5V23.5C16.9819 23.5 18.8894 22.6428 20.2894 21.1312L19.5558 20.4517ZM21.4682 15.4597C21.4682 17.3387 20.7764 19.1338 19.5558 20.4517L20.2894 21.1312C21.6883 19.621 22.4682 17.5802 22.4682 15.4597H21.4682ZM19.5558 10.4676C20.7764 11.7855 21.4682 13.5806 21.4682 15.4597H22.4682C22.4682 13.3391 21.6883 11.2983 20.2894 9.78807L19.5558 10.4676ZM14.9841 8.41932C16.6909 8.41932 18.3363 9.15099 19.5558 10.4676L20.2894 9.78807C18.8894 8.2765 16.9819 7.41932 14.9841 7.41932V8.41932Z" fill="white" mask="url(#path-1-inside-1_975_64)"/>
</svg>
