<svg width="32" height="22" viewBox="0 0 32 22" fill="none" xmlns="http://www.w3.org/2000/svg">
<path d="M28.4027 0.906343L28.4036 0.90658C29.6952 1.24696 30.7149 2.24908 31.0606 3.51109L31.0607 3.51151C31.3917 4.71184 31.5655 6.57617 31.6554 8.15841C31.7001 8.94578 31.7238 9.65692 31.7363 10.1712C31.7425 10.4283 31.7459 10.6361 31.7478 10.7794C31.7488 10.8511 31.7493 10.9067 31.7496 10.9442L31.7499 10.9868L31.75 10.9976L31.75 11V11.0002L31.75 11.0002L31.75 11.0008L31.75 11.0008V11.001L31.75 11.0034L31.75 11.0142L31.7498 11.057C31.7497 11.0947 31.7493 11.1504 31.7487 11.2223C31.7474 11.3662 31.7447 11.5747 31.7395 11.8325C31.7289 12.3484 31.7078 13.0614 31.6656 13.85C31.5809 15.4349 31.4121 17.2985 31.0813 18.488L31.0811 18.4889C30.7354 19.7509 29.7158 20.753 28.4241 21.0934L28.4232 21.0937C27.8279 21.2529 26.7592 21.3765 25.47 21.4702C24.1879 21.5633 22.7086 21.6255 21.3046 21.667C19.901 21.7085 18.5746 21.7292 17.5991 21.7396C17.1113 21.7448 16.7114 21.7474 16.4335 21.7487C16.2945 21.7494 16.1861 21.7497 16.1124 21.7498L16.0285 21.75L16.0071 21.75L16.0018 21.75H16.0004H16.0001L16 22L15.9999 21.75H15.9996H15.9982L15.9929 21.75L15.9715 21.75L15.8876 21.7498C15.8139 21.7497 15.7055 21.7494 15.5665 21.7487C15.2886 21.7474 14.8887 21.7448 14.4009 21.7396C13.4254 21.7292 12.099 21.7085 10.6954 21.667C9.29145 21.6255 7.81213 21.5633 6.52998 21.4702C5.24078 21.3765 4.17212 21.2529 3.5768 21.0937L3.5759 21.0934C2.28422 20.753 1.26457 19.7509 0.918913 18.4889L0.918798 18.4885C0.587912 17.2886 0.419131 15.4246 0.334367 13.8424C0.292188 13.0551 0.271088 12.344 0.260538 11.8297C0.255264 11.5726 0.252629 11.3649 0.251313 11.2215C0.250655 11.1498 0.250327 11.0943 0.250163 11.0567L0.25002 11.0142L0.250002 11.0034L0.25 11.0008L0.25 11.0002L0.25 11L0 11L0.25 11L0.25 10.9998L0.25 10.9992L0.250002 10.9965L0.25002 10.9858L0.250158 10.9432C0.250317 10.9057 0.250636 10.8501 0.251274 10.7784C0.25255 10.6351 0.255105 10.4274 0.26022 10.1705C0.270451 9.65644 0.290914 8.9459 0.331818 8.15973C0.41401 6.58007 0.57767 4.72105 0.898503 3.53076C1.24429 2.26897 2.26385 1.26707 3.55536 0.926735L3.55626 0.926494C4.15178 0.767182 5.22062 0.64232 6.50981 0.546792C7.79199 0.451784 9.27134 0.387073 10.6754 0.343053C12.079 0.299047 13.4053 0.275779 14.3809 0.263516C14.8686 0.257384 15.2685 0.254005 15.5465 0.252158C15.6854 0.251235 15.7939 0.250695 15.8676 0.250386L15.9515 0.250077L15.9728 0.250016L15.9782 0.250003L15.9795 0.25L15.9796 0.25L15.9799 0.25L15.9812 0.25L15.9866 0.250003L16.008 0.25002L16.0919 0.250162C16.1655 0.250324 16.274 0.250648 16.4129 0.251296C16.6909 0.252592 17.0908 0.255186 17.5785 0.260374C18.5541 0.270751 19.8804 0.291504 21.284 0.332995C22.688 0.374499 24.1673 0.436697 25.4495 0.52982C26.7387 0.623456 27.8073 0.747086 28.4027 0.906343ZM21.2172 11.2174L21.5998 11L21.2172 10.7826L12.9194 6.06835L12.5459 5.85615V6.28572V15.7143V16.1438L12.9194 15.9317L21.2172 11.2174Z" stroke="white" stroke-width="0.5"/>
</svg>
