<svg width="34" height="34" viewBox="0 0 34 34" fill="none" xmlns="http://www.w3.org/2000/svg">
<path d="M21.1844 2.29074L21.1836 2.29075C18.8554 2.29074 16.9933 3.03072 15.7131 4.34289C14.4323 5.65576 13.7083 7.56772 13.7083 9.95969V13.2759V13.5259H13.4583H9.45595H9.45579C9.20292 13.5257 8.99779 13.7305 8.99762 13.9834L21.1844 2.29074ZM21.1844 2.29074C22.6112 2.28602 24.0373 2.35893 25.4562 2.50894C25.6829 2.54043 25.8518 2.73428 25.8518 2.96345V2.96351V7.8436M21.1844 2.29074L25.9068 14.0755M25.2963 13.2818C25.6841 13.3324 25.9574 13.6878 25.9068 14.0755M25.2963 13.2818C25.2657 13.2778 25.2349 13.2759 25.204 13.2759H20.7598H20.5098V13.0259V10.5006C20.5098 9.12684 20.7865 8.55271 22.5048 8.55271M25.2963 13.2818L25.2641 13.5297C25.264 13.5297 25.264 13.5297 25.2639 13.5297M25.2963 13.2818L25.2639 13.5297M25.9068 14.0755L25.2026 19.5305M25.9068 14.0755L25.2026 19.5305M22.5048 8.55271L25.3935 8.55132C25.7845 8.5515 26.1015 8.23477 26.1018 7.84377L25.8518 7.8436M22.5048 8.55271L22.5047 8.30271M22.5048 8.55271V8.30271M25.8518 7.8436C25.8516 8.09656 25.6465 8.30144 25.3936 8.30132H25.3933L22.5048 8.30271M25.8518 7.8436L22.5048 8.30271M22.5048 8.30271H22.5047M22.5047 8.30271C21.6358 8.30272 21.038 8.44362 20.6772 8.84418C20.3223 9.2382 20.2598 9.81874 20.2598 10.5006V13.2759V13.5259H20.5098H25.204C25.2241 13.5259 25.2441 13.5271 25.2639 13.5297M22.5047 8.30271L8.99762 13.9835C8.99762 13.9835 8.99762 13.9835 8.99762 13.9835V19.4392V19.4393C8.99745 19.6922 9.20234 19.8973 9.45534 19.8975M25.2639 13.5297C25.5148 13.5624 25.6916 13.7923 25.6589 14.0432L25.6589 14.0435L24.9547 19.4981M24.9547 19.4981C24.9248 19.7265 24.7302 19.8974 24.4998 19.8975V20.1475M24.9547 19.4981L25.2026 19.5305M24.9547 19.4981L24.9547 19.4985L25.2026 19.5305M24.4998 20.1475L24.4998 19.8975H20.5098H20.2598V20.1475V31.083M24.4998 20.1475C24.8557 20.1474 25.1564 19.8834 25.2026 19.5305M24.4998 20.1475H20.7598L25.2026 19.5305M20.2598 31.083C20.2597 31.336 20.0545 31.5409 19.8017 31.5407H19.8015H14.166M20.2598 31.083L20.5098 31.0832M20.2598 31.083V31.0832H20.5098M14.166 31.5407C13.913 31.5406 13.7081 31.3354 13.7083 31.0826V31.0824V20.1475V19.8975H13.4583H9.45534M14.166 31.5407L14.1659 31.7907V31.5407H14.166ZM9.45534 19.8975L9.45517 20.1475M9.45534 19.8975H9.45517V20.1475M9.45517 20.1475H13.2083L8.74762 19.4392C8.74736 19.8302 9.06417 20.1473 9.45517 20.1475ZM20.5098 31.0832V20.3975L19.8015 31.7907C20.1925 31.791 20.5096 31.4742 20.5098 31.0832ZM13.4583 13.2759V13.0259L9.45595 13.2759H13.2083H13.4583Z" stroke="white" stroke-width="0.5"/>
</svg>
