<svg width="26" height="26" viewBox="0 0 26 26" fill="none" xmlns="http://www.w3.org/2000/svg">
<path d="M5.94412 3.06885L5.94412 3.06885V3.07059V3.16282C5.93493 3.52947 5.85378 3.89075 5.70528 4.22613C5.55638 4.5624 5.34267 4.86603 5.07638 5.11969C4.81009 5.37334 4.49644 5.57203 4.15333 5.70442C3.81022 5.83681 3.44439 5.9003 3.07674 5.89125L3.07674 5.89118H3.07059C2.32252 5.89118 1.60509 5.59401 1.07613 5.06504C0.547169 4.53608 0.25 3.81866 0.25 3.07059C0.25 2.32252 0.547169 1.60509 1.07613 1.07613C1.60509 0.547169 2.32252 0.25 3.07059 0.25H3.165C3.53234 0.252653 3.89556 0.327579 4.23397 0.470509C4.57264 0.613548 4.87982 0.821893 5.13796 1.08365C5.39611 1.3454 5.60017 1.65545 5.73849 1.99607C5.87681 2.33669 5.94669 2.70122 5.94412 3.06885ZM20.7488 25.5853V16.7612C20.7488 15.3919 20.4285 14.3924 19.8519 13.7326C19.2709 13.0677 18.4616 12.7841 17.5659 12.7841H17.3647H17.3531L17.3415 12.7852C16.3539 12.8774 15.4426 13.3556 14.8055 14.1158C14.1707 14.8733 13.8593 15.85 13.9382 16.8349V25.5853H9.14412V9.14412H13.6206V11.2024V11.4524H13.8706H14.0188H14.1543L14.2283 11.3389C14.7807 10.4915 15.5456 9.80381 16.4467 9.34434C17.3479 8.88487 18.3537 8.66969 19.364 8.72028L19.364 8.72059H19.3765C20.9369 8.72059 22.4858 9.20046 23.6424 10.28C24.7948 11.3557 25.5852 13.0525 25.5853 15.543C25.5853 15.5432 25.5853 15.5433 25.5853 15.5435L25.544 25.5853H20.7488ZM0.673531 25.5853V9.14412H5.46765V25.5853H0.673531Z" stroke="white" stroke-width="0.5"/>
</svg>
