<?xml version="1.0" encoding="utf-8"?>
<!-- Generator: Adobe Illustrator 28.2.0, SVG Export Plug-In . SVG Version: 6.00 Build 0)  -->
<svg version="1.1" id="Layer_1" xmlns="http://www.w3.org/2000/svg" xmlns:xlink="http://www.w3.org/1999/xlink" x="0px" y="0px"
	 viewBox="0 0 19 30" style="enable-background:new 0 0 19 30;" xml:space="preserve">
<style type="text/css">
	.st0{fill:none;stroke:#FFFFFF;stroke-width:0.5;}
</style>
<path class="st0" d="M13.3,0.3L13.3,0.3c1.4,0,2.9,0.1,4.3,0.2c0.2,0,0.4,0.2,0.4,0.5v0v4.9c0,0.3-0.2,0.5-0.5,0.5h0l-2.9,0
	c0,0,0,0,0,0c-0.9,0-1.5,0.1-1.8,0.5c-0.4,0.4-0.4,1-0.4,1.7v2.8v0.2h0.2h4.7c0,0,0,0,0.1,0c0.3,0,0.4,0.3,0.4,0.5v0L17,17.5
	c0,0.2-0.2,0.4-0.5,0.4l0,0h-4h-0.2v0.2v10.9c0,0.3-0.2,0.5-0.5,0.5h0H6.2c-0.3,0-0.5-0.2-0.5-0.5v0V18.1v-0.2H5.5h-4
	c-0.3,0-0.5-0.2-0.5-0.5v0V12c0-0.3,0.2-0.5,0.5-0.5h0h4h0.2v-0.2V8c0-2.4,0.7-4.3,2-5.6C9.1,1,10.9,0.3,13.3,0.3z"/>
</svg>
