<svg width="30" height="30" viewBox="0 0 30 30" fill="none" xmlns="http://www.w3.org/2000/svg">
<path d="M24.7379 1.02095L24.7358 1.02017C23.8098 0.661984 22.7448 0.411666 21.1718 0.339747L24.7379 1.02095ZM24.7379 1.02095C25.7044 1.38501 26.58 1.95531 27.3036 2.69217L27.3036 2.6922M24.7379 1.02095L27.3036 2.6922M27.3036 2.6922L27.3068 2.69537M27.3036 2.6922L27.3068 2.69537M27.3068 2.69537C28.0439 3.41922 28.6142 4.29513 28.978 5.26203L28.978 5.26204M27.3068 2.69537L28.978 5.26204M28.978 5.26204L28.979 5.26461M28.978 5.26204L28.979 5.26461M28.979 5.26461C29.339 6.1903 29.5883 7.25414 29.6603 8.8274L28.979 5.26461ZM28.979 24.7379L28.9799 24.7356C29.339 23.8098 29.5883 22.7458 29.6603 21.1726C29.6603 21.1726 29.6603 21.1726 29.6603 21.1726L29.91 21.184C29.983 19.584 30 19.074 30 15L28.979 24.7379ZM28.979 24.7379C28.615 25.7044 28.0447 26.58 27.3078 27.3036L27.3078 27.3036M28.979 24.7379L27.3078 27.3036M27.3078 27.3036L27.3046 27.3069M27.3078 27.3036L27.3046 27.3069M27.3046 27.3069C26.5801 28.0449 25.704 28.6148 24.738 28.978L24.738 28.978M27.3046 27.3069L24.738 28.978M24.738 28.978L24.7354 28.979M24.738 28.978L24.7354 28.979M24.7354 28.979C23.8097 29.339 22.7459 29.5883 21.1726 29.6603L24.7354 28.979ZM5.26213 28.979L5.2644 28.9799C6.19023 29.339 7.25415 29.5883 8.8274 29.6603C8.8274 29.6603 8.82741 29.6603 8.82742 29.6603L8.816 29.91C10.416 29.983 10.926 30 15 30L5.26213 28.979ZM5.26213 28.979C4.29563 28.615 3.42006 28.0447 2.69636 27.3078L2.69639 27.3078M5.26213 28.979L2.69639 27.3078M2.69639 27.3078L2.69313 27.3046M2.69639 27.3078L2.69313 27.3046M2.69313 27.3046C1.95513 26.5801 1.38521 25.704 1.02201 24.738L1.02202 24.738M2.69313 27.3046L1.02202 24.738M1.02202 24.738L1.021 24.7354M1.02202 24.738L1.021 24.7354M1.021 24.7354C0.661009 23.8097 0.411655 22.7459 0.339739 21.1726M1.021 24.7354L0.339739 21.1726M1.02017 5.26419L1.02017 5.26419C0.661984 6.19022 0.411666 7.25521 0.339747 8.82825L1.02017 5.26419ZM1.02017 5.26419L1.02095 5.26212M1.02017 5.26419L1.02095 5.26212M1.02095 5.26212C1.38501 4.29561 1.95531 3.42005 2.69217 2.69636L2.6922 2.69639M1.02095 5.26212L2.6922 2.69639M2.6922 2.69639L2.6954 2.69313M2.6922 2.69639L2.6954 2.69313M2.6954 2.69313C3.41988 1.95513 4.29602 1.38521 5.26199 1.02201L5.26199 1.02202M2.6954 2.69313L5.26199 1.02202M5.26199 1.02202L5.26461 1.021M5.26199 1.02202L5.26461 1.021M5.26461 1.021C6.19031 0.661009 7.25415 0.411655 8.8274 0.33974C10.4217 0.267001 10.9272 0.25 15 0.25M5.26461 1.021L15 0.25M15 0.25C19.0736 0.25 19.5783 0.267997 21.1717 0.339744L15 0.25ZM0.339739 21.1726C0.267001 19.5783 0.25 19.0738 0.25 15M0.339739 21.1726L0.25 15M0.25 15C0.25 10.9264 0.267997 10.4217 0.339744 8.82831L0.25 15Z" stroke="white" stroke-width="0.5"/>
</svg>
