<svg width="19" height="19" viewBox="0 0 19 19" fill="none" xmlns="http://www.w3.org/2000/svg">
<path d="M3.36486 0.733087L3.36485 0.733072C2.76555 0.958409 2.22198 1.312 1.7725 1.76987L1.7693 1.77313L1.76927 1.7731C1.3121 2.2221 0.95826 2.76533 0.732387 3.36499L0.731608 3.36706L0.731599 3.36705C0.50871 3.9433 0.35189 4.60792 0.306743 5.59544L3.36486 0.733087ZM3.36486 0.733087L3.36748 0.732068M3.36486 0.733087L3.36748 0.732068M3.36748 0.732068C3.94337 0.508109 4.60718 0.351888 5.59486 0.30674C6.60247 0.260768 6.92099 0.25 9.5 0.25C12.0795 0.25 12.3975 0.261397 13.4046 0.306744L3.36748 0.732068ZM0.733087 15.6351L0.733072 15.6351C0.958409 16.2344 1.312 16.778 1.76987 17.2275L1.77312 17.2307L1.77309 17.2307C2.22211 17.6879 2.76534 18.0417 3.365 18.2676L3.36727 18.2685C3.94329 18.4919 4.60718 18.6481 5.59486 18.6933C5.59487 18.6933 5.59488 18.6933 5.59488 18.6933L5.58347 18.943C6.5968 18.9892 6.9198 19 9.5 19L0.733087 15.6351ZM0.733087 15.6351L0.732068 15.6325M0.733087 15.6351L0.732068 15.6325M0.732068 15.6325C0.508109 15.0566 0.351888 14.3928 0.30674 13.4051C0.260768 12.3975 0.25 12.0796 0.25 9.5C0.25 6.92064 0.261396 6.60252 0.306739 5.59552L0.732068 15.6325ZM18.2679 3.36748L18.2669 3.36491C18.0412 2.76501 17.6874 2.22156 17.2301 1.77247L17.2269 1.7693L17.2269 1.76927C16.7779 1.3121 16.2347 0.95826 15.635 0.732387L15.6329 0.731608L15.6329 0.731599C15.0567 0.508717 14.3921 0.351899 13.4047 0.306747L18.2679 3.36748ZM18.2679 3.36748C18.4919 3.94337 18.6481 4.60717 18.6933 5.59486L18.2679 3.36748Z" stroke="white" stroke-width="0.5"/>
</svg>
