<svg width="14" height="14" viewBox="0 0 14 14" fill="none" xmlns="http://www.w3.org/2000/svg">
<path d="M3.10656 1.66219L3.10656 1.66219C3.10785 1.47802 3.07284 1.29539 3.00354 1.12475C2.93425 0.954103 2.83202 0.798778 2.70269 0.667642M3.10656 1.66219L2.70269 0.667642M3.10656 1.66219V1.66393M3.10656 1.66219V1.66393M2.70269 0.667642C2.57336 0.536506 2.41947 0.432128 2.24981 0.360468C2.08039 0.288915 1.89857 0.251381 1.71467 0.25H1.66393C1.28894 0.25 0.929296 0.398968 0.664132 0.664132C0.398968 0.929296 0.25 1.28894 0.25 1.66393C0.25 2.03893 0.398968 2.39857 0.664132 2.66374C0.929296 2.9289 1.28894 3.07787 1.66393 3.07787M2.70269 0.667642L1.66393 3.07787M3.10656 1.66393V1.71245C3.10178 1.89565 3.06115 2.07615 2.98694 2.24374C2.91234 2.41221 2.80528 2.56433 2.67187 2.6914C2.53847 2.81848 2.38133 2.91802 2.20944 2.98435C2.03755 3.05067 1.85427 3.08248 1.67008 3.07794L1.67008 3.07787M3.10656 1.66393L1.67008 3.07787M1.67008 3.07787H1.66393M1.67008 3.07787H1.66393M11.3582 13.75V9.08279C11.3582 8.32469 11.181 7.75199 10.8439 7.36623C10.5023 6.97538 10.029 6.81311 9.51885 6.81311H9.40984H9.39819L9.38659 6.8142C8.8214 6.86697 8.29986 7.14062 7.93526 7.57571C7.57295 8.00806 7.39471 8.56513 7.43852 9.12724V13.75H5.06967V5.06967H7.26639V6.07049V6.32049H7.51639H7.59672H7.73218L7.80615 6.20702C8.09456 5.76462 8.49392 5.40556 8.96441 5.16567C9.43489 4.92578 9.96005 4.81344 10.4875 4.83985L10.4875 4.84016H10.5C11.3232 4.84016 12.1324 5.09327 12.7335 5.65438C13.3306 6.21172 13.7499 7.09853 13.75 8.42239C13.75 8.42258 13.75 8.42276 13.75 8.42295L13.7281 13.75H11.3582ZM0.479508 13.75V5.06967H2.84836V13.75H0.479508Z" stroke="white" stroke-width="0.5"/>
</svg>
