<svg width="76" height="77" viewBox="0 0 76 77" fill="none" xmlns="http://www.w3.org/2000/svg">
<path d="M17 14.1925V13.2137L28.5622 6.14804V7.53467L18.3954 13.7133L18.4951 13.5298V13.8764L18.3954 13.6929L28.5622 19.8715V21.2582L17 14.1925Z" fill="white" fill-opacity="0.27"/>
<path d="M40.3761 0L33.7976 25H32.6314L39.2099 0H40.3761Z" fill="white" fill-opacity="0.27"/>
<path d="M56 14.1925L44.4378 21.2582V19.8715L54.6046 13.6929L54.4949 13.8764V13.5298L54.6046 13.7133L44.4378 7.53467V6.14804L56 13.2137V14.1925Z" fill="white" fill-opacity="0.27"/>
<g clip-path="url(#clip0_648_118)">
<path d="M37.3868 36.3649C33.2948 36.3771 29.2027 35.8877 25.1471 34.8476C23.5686 33.8932 21.8201 33.2937 19.9987 33.0857C19.8044 33.0612 19.6102 33.049 19.4037 33.0367C19.2702 33 18.5538 32.9878 18.4202 32.9878C11.9361 33 6.43553 37.7842 5.47627 44.2447C5.24557 45.7987 5.03914 47.3037 4.67487 48.8087C0.0364275 68.3004 0 67.4561 0 69.1079C0 72.7787 2.50136 75.96 6.04697 76.7675C13.2961 78.4561 15.6638 70.5885 16.5745 69.5851C20.448 62.8921 23.3622 59.772 27.2721 56.0523C34.5576 54.5106 41.9281 54.6574 49.1893 56.4928C56.2441 62.8554 60.0205 70.8821 61.429 73.0723C63.1532 76.0579 66.6017 77.5506 69.9287 76.7675C73.4744 75.96 75.9879 72.7664 75.9879 69.1079C75.9879 67.4316 75.9029 68.0801 71.313 48.8087C70.9487 47.3282 70.7423 45.8476 70.4994 44.2447C69.2488 36.059 60.8826 30.9934 53.0992 33.7709C48.2786 35.3738 43.4338 36.2303 38.5889 36.3649M15.5303 68.9611C14.5103 70.1113 12.6039 77.0367 6.32625 75.5684C3.32705 74.8832 1.20211 72.1914 1.21425 69.0957C1.21425 67.6396 1.31139 68.1413 5.85269 49.0901C6.22911 47.5484 6.44768 45.9822 6.67838 44.416C7.64978 38.0167 13.3689 33.5751 19.853 34.3093C25.305 34.9333 29.6642 39.3994 30.2956 44.7342C30.7691 48.6986 29.2756 52.6508 26.3007 55.2937C22.3665 58.7564 18.8452 63.2347 15.5181 68.9733L15.5303 68.9611ZM37.2897 53.7642C34.424 53.7642 31.5584 54.0212 28.7049 54.5228C30.8663 51.831 31.9348 48.2092 31.5098 44.5873C31.1577 41.6752 29.7127 38.7631 27.5149 36.6585C34.594 38.0779 41.8067 37.9433 48.9222 36.2425C46.603 38.2737 44.8909 41.3204 44.4902 44.5873C44.4295 45.1013 44.4052 45.6152 44.4052 46.1168C44.393 49.3471 45.583 52.5162 47.5622 54.8532C44.1866 54.1313 40.7503 53.7764 37.3018 53.7764L37.2897 53.7642ZM69.6738 75.5807C66.8567 76.2536 63.9425 74.9811 62.4854 72.4605C61.6475 71.1391 56.1227 60.5918 49.6872 55.2937C46.6637 52.6263 45.2066 48.7842 45.6923 44.7342C46.2144 40.3538 49.25 36.4628 53.5121 34.9333L53.8156 34.8354L53.937 34.7987H53.9492C60.7004 32.6574 68.1924 37.0134 69.3216 44.4405C69.5523 46.0067 69.7709 47.5729 70.1473 49.1146C74.8343 68.802 74.7858 67.7375 74.7858 69.1202C74.7858 72.2281 72.6851 74.8955 69.6738 75.5929V75.5807Z" fill="white"/>
<path d="M13.2233 44.0122C13.0411 43.7308 12.6647 43.6451 12.3854 43.8164C12.1062 44 12.0212 44.3793 12.1912 44.6607C12.1912 44.673 12.2154 44.6852 12.2154 44.6974L13.3933 46.4227L12.2033 48.2336C12.0212 48.515 12.1062 48.8943 12.3854 49.0778C12.6647 49.2614 13.029 49.1757 13.2111 48.9065L14.6318 46.753C14.7654 46.545 14.7654 46.2758 14.6318 46.0678L13.2111 44L13.2233 44.0122ZM23.2166 44.0122L21.7959 46.0801C21.6502 46.2881 21.6502 46.5573 21.7959 46.7653L23.2166 48.9188C23.3866 49.2124 23.763 49.2981 24.0544 49.1268C24.3458 48.9555 24.4308 48.5762 24.2608 48.2825C24.2608 48.2703 24.2487 48.258 24.2365 48.2458L23.0466 46.4349L24.2244 44.7097C24.6858 44.0367 23.678 43.3392 23.2287 44.0122H23.2166ZM18.5174 50.0689C18.311 49.9344 18.0438 49.9344 17.8374 50.0689L15.7853 51.5005C15.5061 51.6841 15.4211 52.0634 15.5911 52.3448C15.7732 52.6262 16.1496 52.7119 16.4289 52.5406C16.441 52.5406 16.4532 52.5161 16.4653 52.5161L18.1774 51.3292L19.9745 52.5283C20.2538 52.7119 20.6302 52.6385 20.8123 52.357C20.9945 52.0756 20.9216 51.6963 20.6423 51.5128L18.5053 50.0812L18.5174 50.0689ZM19.9745 40.4271L18.1774 41.6262L16.4653 40.4271C16.1982 40.2191 15.8218 40.2803 15.6153 40.5495C15.4089 40.8187 15.4696 41.198 15.7368 41.406C15.7489 41.406 15.7611 41.4305 15.7732 41.4305L17.8253 42.8621C18.0317 43.0089 18.2988 43.0089 18.5053 42.8621L20.6423 41.4305C20.9216 41.2469 20.9945 40.8676 20.8123 40.5862C20.6302 40.3048 20.2538 40.2314 19.9745 40.4149V40.4271ZM41.0296 42.9966H34.9584C34.6184 42.9966 34.3512 43.2658 34.3512 43.6084C34.3512 43.951 34.6184 44.2202 34.9584 44.2202H41.0296C41.3696 44.2202 41.6367 43.951 41.6367 43.6084C41.6367 43.2658 41.3696 42.9966 41.0296 42.9966ZM41.0296 47.3159H34.9584C34.6184 47.3159 34.3512 47.5851 34.3512 47.9277C34.3512 48.2703 34.6184 48.5395 34.9584 48.5395H41.0296C41.3696 48.5395 41.6367 48.2703 41.6367 47.9277C41.6367 47.5851 41.3696 47.3159 41.0296 47.3159ZM52.9414 44.2692C51.7393 44.2692 50.7558 45.2603 50.7558 46.4839C50.7558 47.7074 51.7393 48.6863 52.9414 48.6863C54.1435 48.6863 55.1271 47.6952 55.1271 46.4839C55.1271 45.2725 54.1435 44.2692 52.9414 44.2692ZM52.9414 47.4505C52.4072 47.4505 51.97 47.01 51.97 46.4839C51.97 45.9332 52.4072 45.4928 52.9414 45.4928C53.4757 45.5295 53.8885 45.9944 53.8521 46.5328C53.8278 47.0222 53.4271 47.426 52.9414 47.4505ZM63.129 44.2692C61.9269 44.2692 60.9433 45.2603 60.9433 46.4839C60.9433 47.7074 61.9269 48.6863 63.129 48.6863C64.3311 48.6863 65.3147 47.6952 65.3147 46.4839C65.3147 45.2725 64.3311 44.2692 63.129 44.2692ZM63.129 47.4505C62.5947 47.426 62.1819 46.9611 62.2062 46.4227C62.2304 45.921 62.6312 45.5172 63.129 45.4928C63.6633 45.5172 64.0761 45.9822 64.0518 46.5206C64.0275 47.0222 63.6268 47.426 63.129 47.4505ZM58.0291 39.1301C56.827 39.1301 55.8435 40.1212 55.8435 41.3326C55.8435 42.5439 56.827 43.535 58.0291 43.535C59.2313 43.535 60.2269 42.5439 60.2269 41.3326C60.2269 40.1212 59.2434 39.1301 58.0291 39.1301ZM58.0291 42.3114C57.4949 42.287 57.082 41.822 57.1063 41.2836C57.1306 40.782 57.5313 40.3782 58.0291 40.3537C58.5634 40.3537 59.0127 40.7942 59.0127 41.3203C59.0127 41.8465 58.5756 42.2992 58.0291 42.2992V42.3114ZM58.0291 49.4082C56.827 49.4082 55.8435 50.3993 55.8435 51.6107C55.8435 52.822 56.827 53.8131 58.0291 53.8131C59.2313 53.8131 60.2269 52.822 60.2269 51.6107C60.2269 50.3993 59.2434 49.4082 58.0291 49.4082ZM58.0291 52.5773C57.4949 52.5528 57.082 52.0879 57.1063 51.5495C57.1306 51.0478 57.5313 50.644 58.0291 50.6196C58.5634 50.6196 59.0127 51.06 59.0127 51.5984C59.0127 52.1368 58.5756 52.5773 58.0291 52.5773Z" fill="white"/>
</g>
<defs>
<clipPath id="clip0_648_118">
<rect width="76" height="44" fill="white" transform="translate(0 33)"/>
</clipPath>
</defs>
</svg>
