<svg width="18" height="18" viewBox="0 0 18 18" fill="none" xmlns="http://www.w3.org/2000/svg">
<mask id="path-1-inside-1_975_24" fill="white">
<path d="M13.5866 4.5067C12.7786 3.97988 12.1954 3.13696 12.0135 2.15435C11.9742 1.94205 11.9526 1.72355 11.9526 1.5H9.37377L9.36964 11.835C9.32628 12.9923 8.37375 13.9212 7.20603 13.9212C6.8431 13.9212 6.50136 13.8305 6.20047 13.6721C5.51048 13.309 5.03828 12.5858 5.03828 11.7535C5.03828 10.5581 6.01078 9.58563 7.20603 9.58563C7.42915 9.58563 7.64319 9.62244 7.84565 9.68586V7.05318C7.63612 7.02465 7.42324 7.00682 7.20603 7.00682C4.58872 7.00682 2.45947 9.13617 2.45947 11.7535C2.45947 13.3593 3.26179 14.7804 4.48581 15.6397C5.2568 16.181 6.19461 16.5 7.20603 16.5C9.82333 16.5 11.9526 14.3708 11.9526 11.7535V6.51276C12.964 7.23871 14.2032 7.6665 15.5404 7.6665V5.0877C14.8201 5.0877 14.1492 4.87356 13.5866 4.5067Z"/>
</mask>
<path d="M12.0135 2.15435L11.5218 2.24536L11.5218 2.24537L12.0135 2.15435ZM11.9526 1.5H12.4526V1H11.9526V1.5ZM9.37377 1.5V1H8.87397L8.87377 1.4998L9.37377 1.5ZM9.36964 11.835L9.86929 11.8537L9.86964 11.8444L9.86964 11.8352L9.36964 11.835ZM6.20047 13.6721L5.96762 14.1146L5.96763 14.1146L6.20047 13.6721ZM7.84565 9.68586L7.6962 10.163L8.34565 10.3664V9.68586H7.84565ZM7.84565 7.05318H8.34565V6.61664L7.9131 6.55775L7.84565 7.05318ZM4.48581 15.6397L4.7731 15.2305L4.7731 15.2305L4.48581 15.6397ZM11.9526 6.51276L12.2441 6.10655L11.4526 5.53843V6.51276H11.9526ZM15.5404 7.6665V8.1665H16.0404V7.6665H15.5404ZM15.5404 5.0877H16.0404V4.5877H15.5404V5.0877ZM13.8597 4.08787C13.1629 3.63357 12.6614 2.9074 12.5051 2.06332L11.5218 2.24537C11.7294 3.36653 12.3943 4.3262 13.3135 4.92554L13.8597 4.08787ZM12.5051 2.06334C12.471 1.87925 12.4526 1.69125 12.4526 1.5H11.4526C11.4526 1.75586 11.4773 2.00484 11.5218 2.24536L12.5051 2.06334ZM11.9526 1H9.37377V2H11.9526V1ZM8.87377 1.4998L8.86964 11.8348L9.86964 11.8352L9.87377 1.5002L8.87377 1.4998ZM8.86999 11.8163C8.83662 12.707 8.10281 13.4212 7.20603 13.4212V14.4212C8.64468 14.4212 9.81595 13.2776 9.86929 11.8537L8.86999 11.8163ZM7.20603 13.4212C6.92753 13.4212 6.66538 13.3518 6.43331 13.2296L5.96763 14.1146C6.33733 14.3091 6.75866 14.4212 7.20603 14.4212V13.4212ZM6.43332 13.2297C5.90009 12.949 5.53828 12.3918 5.53828 11.7535H4.53828C4.53828 12.7798 5.12087 13.669 5.96762 14.1146L6.43332 13.2297ZM5.53828 11.7535C5.53828 10.8343 6.28694 10.0856 7.20603 10.0856V9.08563C5.73462 9.08563 4.53828 10.282 4.53828 11.7535H5.53828ZM7.20603 10.0856C7.37358 10.0856 7.53722 10.1132 7.6962 10.163L7.9951 9.20871C7.74915 9.13168 7.48472 9.08563 7.20603 9.08563V10.0856ZM8.34565 9.68586V7.05318H7.34565V9.68586H8.34565ZM7.9131 6.55775C7.68646 6.52689 7.45054 6.50682 7.20603 6.50682V7.50682C7.39594 7.50682 7.58579 7.52241 7.7782 7.54861L7.9131 6.55775ZM7.20603 6.50682C4.31256 6.50682 1.95947 8.86004 1.95947 11.7535H2.95947C2.95947 9.4123 4.86488 7.50682 7.20603 7.50682V6.50682ZM1.95947 11.7535C1.95947 13.5299 2.84757 15.1005 4.19852 16.049L4.7731 15.2305C3.67601 14.4603 2.95947 13.1887 2.95947 11.7535H1.95947ZM4.19852 16.049C5.0503 16.6469 6.08777 17 7.20603 17V16C6.30145 16 5.46329 15.7151 4.7731 15.2305L4.19852 16.049ZM7.20603 17C10.0995 17 12.4526 14.6469 12.4526 11.7535H11.4526C11.4526 14.0946 9.54719 16 7.20603 16V17ZM12.4526 11.7535V6.51276H11.4526V11.7535H12.4526ZM11.661 6.91896C12.7544 7.7037 14.0949 8.1665 15.5404 8.1665V7.1665C14.3115 7.1665 13.1737 6.77372 12.2441 6.10655L11.661 6.91896ZM16.0404 7.6665V5.0877H15.0404V7.6665H16.0404ZM15.5404 4.5877C14.9207 4.5877 14.3441 4.40378 13.8597 4.08787L13.3135 4.92554C13.9543 5.34335 14.7195 5.5877 15.5404 5.5877V4.5877Z" fill="white" mask="url(#path-1-inside-1_975_24)"/>
</svg>
