<svg width="105" height="74" viewBox="0 0 105 74" fill="none" xmlns="http://www.w3.org/2000/svg">
<path d="M55.7485 74C56.0168 73.8401 56.2667 73.6709 56.5337 73.5375C70.4669 66.5416 84.4027 59.5496 98.3359 52.5551C100.401 51.519 102.459 50.4685 104.529 49.4443C104.866 49.2778 104.991 49.0835 104.991 48.699C104.98 38.0109 104.975 27.3241 105 16.6374C105.001 15.966 104.567 15.9674 104.189 15.8524C100.835 14.8296 97.4771 13.8213 94.1207 12.809C89.4347 11.3951 84.7473 9.99033 80.0652 8.56445C76.7312 7.54956 73.4103 6.49238 70.0736 5.48409C66.4227 4.38198 62.7598 3.32084 59.1062 2.22798C56.948 1.5831 54.7463 1.03733 52.6657 0.194226C51.7753 -0.166537 51.1348 0.0382922 50.4115 0.278801C42.9767 2.74864 35.5458 5.22905 28.1189 7.72003C18.9875 10.7832 9.86002 13.8623 0.725983 16.9188C0.201218 17.0946 -0.00263214 17.3245 -0.00131226 17.9139C0.0197296 27.8752 0.0184097 37.8365 -0.00131226 47.7978C-0.00131226 48.366 0.16703 48.6501 0.679955 48.88C4.58872 50.631 8.48564 52.4071 12.3826 54.1844C14.8538 55.3117 17.3119 56.4653 19.7845 57.5899C23.5828 59.3157 27.3916 61.0218 31.1912 62.7463C33.1114 63.6185 35.0197 64.5171 36.9386 65.3919C40.0227 66.7979 43.1121 68.1895 46.1963 69.5968C48.1546 70.4901 50.105 71.402 52.0607 72.3045C53.2812 72.8675 54.5044 73.4278 55.7459 73.9987L55.7485 74ZM2.89343 46.4195C3.57602 46.1168 4.16654 45.8063 4.78995 45.5869C11.7828 43.1369 18.7836 40.7067 25.7765 38.2567C27.6336 37.6065 29.4709 36.9009 31.3227 36.2335C35.4038 34.7654 39.4861 33.2998 43.5711 31.8449C45.6952 31.089 47.8232 30.3411 49.9617 29.6248C50.9139 29.3063 51.8595 28.8399 52.9169 29.2495C53.7087 29.5561 54.5096 29.8349 55.3106 30.1164C62.2167 32.5532 69.1228 34.9913 76.0328 37.4215C80.5308 39.0033 85.034 40.5732 89.5359 42.1445C93.1593 43.4105 96.7866 44.6685 100.409 45.9371C100.803 46.0759 101.182 46.2635 101.676 46.475C99.7116 47.5176 97.8624 48.5166 95.9988 49.4853C92.7121 51.1939 89.4162 52.8841 86.1256 54.5835C83.3598 56.0107 80.5926 57.4379 77.828 58.8691C74.2691 60.7112 70.7181 62.5705 67.1526 64.4008C63.5108 66.2693 59.8533 68.1049 56.2115 69.9734C55.8209 70.1743 55.5263 70.1783 55.1225 69.9867C53.3956 69.1673 51.6477 68.393 49.9038 67.608C46.7789 66.202 43.65 64.8025 40.5265 63.3938C38.3893 62.4305 36.26 61.4499 34.1228 60.4879C31.0899 59.1241 28.0531 57.7709 25.019 56.4111C23.2158 55.6037 21.418 54.7831 19.6096 53.9862C17.3843 53.007 15.1432 52.0661 12.9244 51.071C10.7096 50.0786 8.51327 49.0426 6.31031 48.0211C5.18845 47.5017 4.07185 46.9718 2.8908 46.4195H2.89343ZM51.9726 28.6046V2.37863C52.3764 2.49227 52.7288 2.58346 53.0774 2.68917C55.542 3.44374 58.0041 4.20358 60.4688 4.95683C64.5485 6.20166 68.6296 7.43988 72.708 8.68603C75.2976 9.4776 77.8807 10.289 80.4716 11.0726C84.3698 12.2514 88.2746 13.409 92.1729 14.5877C95.2991 15.5326 98.4188 16.5026 101.548 17.4395C102.059 17.5928 102.258 17.8161 102.256 18.3936C102.234 27.41 102.241 36.4251 102.241 45.4416V46.2067C85.4036 40.3116 68.6914 34.4601 51.9713 28.606L51.9726 28.6046ZM51.532 2.37202C51.5465 2.59535 51.5636 2.72485 51.5636 2.85436C51.5636 11.2959 51.5623 19.7375 51.5728 28.1791C51.5728 28.606 51.4268 28.7883 51.0243 28.9178C48.9411 29.5812 46.8604 30.2538 44.7943 30.9688C42.828 31.6493 40.8842 32.3946 38.9272 33.1003C34.5476 34.6795 30.1693 36.2639 25.7818 37.8233C18.8586 40.2825 11.9301 42.7233 5.00301 45.1693C4.24809 45.4363 3.48658 45.6834 2.68431 45.9556C2.66327 45.7455 2.63434 45.5988 2.63434 45.4521C2.63171 36.9445 2.63433 28.4368 2.62513 19.9291C2.62513 19.5723 2.71456 19.3926 3.07098 19.2684C6.34845 18.128 9.61671 16.9611 12.8915 15.8128C15.7521 14.8084 18.6179 13.816 21.4811 12.8183C26.5578 11.0502 31.6344 9.28334 36.7111 7.5152C39.3336 6.60074 41.9534 5.67967 44.5773 4.76918C46.8683 3.97365 49.162 3.18869 51.532 2.37202ZM104.598 16.6017V17.5016C104.598 27.0876 104.598 36.6736 104.598 46.2582C104.598 47.0062 104.621 47.7541 104.582 48.4995C104.571 48.699 104.409 48.9831 104.237 49.069C98.2241 52.1071 92.2005 55.124 86.1795 58.1462C76.3419 63.0859 66.5042 68.0269 56.6665 72.9653C56.4456 73.0763 56.2167 73.1688 55.8998 73.3115C55.8998 72.4882 55.8616 71.7852 55.9208 71.0901C55.9405 70.8509 56.147 70.5324 56.3575 70.4188C57.8318 69.6193 59.3298 68.8647 60.8199 68.0956C65.3284 65.7672 69.8356 63.4387 74.3428 61.1103C77.3993 59.5311 80.4532 57.9493 83.5097 56.3715C86.4715 54.8425 89.4333 53.3162 92.3978 51.7913C95.6332 50.1262 98.8672 48.4558 102.113 46.8093C102.505 46.6097 102.643 46.3851 102.63 45.9503C102.598 44.8733 102.619 43.7963 102.619 42.7193C102.619 34.5632 102.619 26.4057 102.623 18.2496C102.623 18.0394 102.604 17.7144 102.719 17.6404C103.288 17.2756 103.897 16.9783 104.596 16.6003L104.598 16.6017ZM55.5486 73.3234C55.4039 73.2943 55.3158 73.2917 55.2422 73.2586C52.9261 72.2041 50.6114 71.1496 48.2979 70.0897C46.3015 69.1753 44.3116 68.2489 42.3138 67.3384C39.3283 65.9773 36.3362 64.6281 33.3507 63.2683C31.4148 62.3868 29.4841 61.4922 27.5481 60.6108C24.56 59.251 21.5679 57.9031 18.5811 56.5406C16.5859 55.6301 14.6013 54.6945 12.6048 53.7867C8.72633 52.0225 4.84518 50.2597 0.954834 48.5206C0.498459 48.3158 0.389297 48.0528 0.39061 47.5771C0.405075 37.8801 0.401138 28.1844 0.402451 18.4874C0.402451 18.2786 0.42086 18.0698 0.435333 17.7447C0.914062 18.1452 1.29547 18.4874 1.70055 18.798C2.13719 19.1336 2.26346 19.5433 2.26214 20.0996C2.24242 28.4765 2.25161 36.8546 2.23978 45.2314C2.23978 45.6345 2.09643 46.0375 2.00568 46.5199C3.27484 47.1079 4.665 47.7647 6.06569 48.3964C8.77894 49.6201 11.5014 50.8239 14.2146 52.0476C16.3716 53.0189 18.518 54.0153 20.6762 54.9853C24.005 56.4825 27.3403 57.9678 30.6717 59.4571C32.5564 60.3002 34.441 61.1407 36.3244 61.9878C38.8509 63.1242 41.3761 64.266 43.9012 65.4051C45.4071 66.0843 46.9117 66.7636 48.4176 67.4428C50.6548 68.4537 52.8959 69.4594 55.1251 70.4888C55.3066 70.5721 55.521 70.8166 55.5315 70.9963C55.5762 71.7561 55.5513 72.5212 55.5513 73.3247L55.5486 73.3234ZM0.939056 17.4421C1.03374 17.4078 1.19551 17.3457 1.3586 17.2902C5.32654 15.9647 9.29712 14.6485 13.2624 13.3152C19.9029 11.0819 26.5393 8.83404 33.1798 6.60074C39.0613 4.62249 44.9455 2.65085 50.8336 0.693744C51.2295 0.561597 51.7109 0.442664 52.0897 0.54706C54.1545 1.11794 56.1996 1.7615 58.2513 2.37995C60.7397 3.12922 63.2294 3.87057 65.7151 4.6291C68.2126 5.39159 70.7023 6.17523 73.1999 6.93904C75.8303 7.74382 78.4633 8.53803 81.0963 9.33223C84.8906 10.4753 88.6876 11.6144 92.4833 12.7562C94.8888 13.479 97.2969 14.1992 99.6998 14.93C101.14 15.3674 102.575 15.822 104.156 16.3136C103.211 16.7589 102.52 17.4051 101.458 17.0245C100.092 16.5343 98.6844 16.159 97.2943 15.7361C91.7244 14.0393 86.1546 12.3439 80.586 10.6471C76.3787 9.36659 72.1701 8.09137 67.9641 6.80293C62.9545 5.26737 57.9462 3.72653 52.9432 2.16851C52.1317 1.91611 51.3939 1.86193 50.5745 2.21476C49.4395 2.70503 48.2453 3.05522 47.0761 3.46224C42.1441 5.18148 37.2108 6.89807 32.2802 8.61864C28.4082 9.9705 24.5416 11.3316 20.6696 12.6809C15.0787 14.6287 9.4681 16.5197 3.90614 18.5495C2.73167 18.9777 2.03066 18.642 1.29546 17.8888C1.17316 17.7632 1.07583 17.6139 0.941681 17.4421H0.939056Z" fill="white"/>
</svg>
