<svg width="20" height="14" viewBox="0 0 20 14" fill="none" xmlns="http://www.w3.org/2000/svg">
<path fill-rule="evenodd" clip-rule="evenodd" d="M17.0128 1.36264C17.7869 1.56044 18.3992 2.14286 18.6072 2.87912C18.9884 4.21978 19 7 19 7C19 7 19 9.79121 18.6187 11.1209C18.4108 11.8571 17.7985 12.4396 17.0244 12.6374C15.6264 13 10 13 10 13C10 13 4.37356 13 2.97561 12.6374C2.20154 12.4396 1.58922 11.8571 1.38126 11.1209C1 9.78022 1 7 1 7C1 7 1 4.21978 1.3697 2.89011C1.57766 2.15385 2.18999 1.57143 2.96406 1.37363C4.362 1.01099 9.98845 1 9.98845 1C9.98845 1 15.6149 1 17.0128 1.36264ZM12.8652 7L8.19769 9.57143V4.42857L12.8652 7Z" stroke="white" stroke-width="0.5"/>
</svg>
